# xmcd
#
# Track frame offsets:
#	150
#	12337
#	27187
#	41195
#	51865
#	62190
#	75715
#	86302
#	105262
#	115422
#	133307
#	143115
#	159637
#	176115
#	195512
#	206930
#
# Disc length: 2898 seconds
#
# Revision: 0
# Processed by: cddbd v1.5.2PL0 Copyright (c) Steve Scherf et al.
# Submitted via: EasyCDDAExtractor 10.0.6.1
#
DISCID=e20b5010
DTITLE=Various Artist - Eddie Crook Co.July 1997
DYEAR=1997
DGENRE=Gospel
TTITLE0=Dixie Echoes - What Dreams Are Made
TTITLE1=Samanthia Cassidy - My God Will Always Come Through
TTITLE2=Heirline - Healing Touch
TTITLE3=Gina Vera - He's A Personal Friend
TTITLE4=Carroll Roberson - I Believe
TTITLE5=The Wilburns - Singing In The Heavenly Choir
TTITLE6=Hope Street - Lord Make Me A Mountain Climber
TTITLE7=Phyllis Boyd - God Really Cares
TTITLE8=Believers - There Is Coming A Great Day
TTITLE9=Devin - Too Young To Die
TTITLE10=Heirborn - The Devil Is Alive
TTITLE11=Doorway Singers - Lord Make Me Stronger
TTITLE12=Phillips Family - The Throne
TTITLE13=Victories - Born Again
TTITLE14=Larrene Cook - A Whole Lot Of Shaking
TTITLE15=Trinity Gospel Boys - It Wasn't Over
EXTD=
EXTT0=
EXTT1=
EXTT2=
EXTT3=
EXTT4=
EXTT5=
EXTT6=
EXTT7=
EXTT8=
EXTT9=
EXTT10=
EXTT11=
EXTT12=
EXTT13=
EXTT14=
EXTT15=
PLAYORDER=
